<?xml version="1.0" encoding="UTF-8" standalone="no"?>
<!-- Created with Inkscape (http://www.inkscape.org/) -->

<svg
   xmlns:dc="http://purl.org/dc/elements/1.1/"
   xmlns:cc="http://creativecommons.org/ns#"
   xmlns:rdf="http://www.w3.org/1999/02/22-rdf-syntax-ns#"
   xmlns:svg="http://www.w3.org/2000/svg"
   xmlns="http://www.w3.org/2000/svg"
   xmlns:sodipodi="http://sodipodi.sourceforge.net/DTD/sodipodi-0.dtd"
   xmlns:inkscape="http://www.inkscape.org/namespaces/inkscape"
   width="929.43695"
   height="430.45682"
   id="svg2"
   version="1.1"
   inkscape:version="0.48.4 r9939"
   sodipodi:docname="schema.svg">
  <defs
     id="defs4" />
  <sodipodi:namedview
     id="base"
     pagecolor="#ffffff"
     bordercolor="#666666"
     borderopacity="1.0"
     inkscape:pageopacity="0.0"
     inkscape:pageshadow="2"
     inkscape:zoom="0.35"
     inkscape:cx="181.89904"
     inkscape:cy="309.17445"
     inkscape:document-units="px"
     inkscape:current-layer="layer1"
     showgrid="false"
     fit-margin-top="10"
     fit-margin-left="10"
     fit-margin-right="10"
     fit-margin-bottom="10"
     showborder="true"
     inkscape:showpageshadow="false"
     inkscape:window-width="1661"
     inkscape:window-height="958"
     inkscape:window-x="0"
     inkscape:window-y="25"
     inkscape:window-maximized="0" />
  <metadata
     id="metadata7">
    <rdf:RDF>
      <cc:Work
         rdf:about="">
        <dc:format>image/svg+xml</dc:format>
        <dc:type
           rdf:resource="http://purl.org/dc/dcmitype/StillImage" />
        <dc:title></dc:title>
      </cc:Work>
    </rdf:RDF>
  </metadata>
  <g
     inkscape:label="Layer 1"
     inkscape:groupmode="layer"
     id="layer1"
     transform="translate(155.82338,-61.1875)">
    <g
       id="g3787">
      <rect
         ry="12.666509"
         rx="12.666509"
         y="72.178848"
         x="74.102379"
         height="104.95107"
         width="177.33112"
         id="rect2985"
         style="fill:#f4c5c5;fill-opacity:1;fill-rule:evenodd;stroke:#ff0000;stroke-width:2;stroke-linecap:butt;stroke-linejoin:miter;stroke-miterlimit:4;stroke-opacity:1;stroke-dasharray:none" />
      <text
         sodipodi:linespacing="125%"
         id="text3755"
         y="128.57768"
         x="101.52033"
         style="font-size:20px;font-style:normal;font-weight:normal;line-height:125%;letter-spacing:0px;word-spacing:0px;fill:#000000;fill-opacity:1;stroke:none;font-family:Sans"
         xml:space="preserve"><tspan
           y="128.57768"
           x="101.52033"
           id="tspan3757"
           sodipodi:role="line">omero-data</tspan></text>
    </g>
    <g
       id="g3792"
       transform="translate(4.0665283,0)">
      <rect
         style="fill:#f4c5c5;fill-opacity:1;fill-rule:evenodd;stroke:#ff0000;stroke-width:2;stroke-linecap:butt;stroke-linejoin:miter;stroke-miterlimit:4;stroke-opacity:1;stroke-dasharray:none"
         id="rect3759"
         width="177.33112"
         height="104.95107"
         x="325.63037"
         y="72.178848"
         rx="12.666509"
         ry="12.666509" />
      <text
         xml:space="preserve"
         style="font-size:20px;font-style:normal;font-weight:normal;line-height:125%;letter-spacing:0px;word-spacing:0px;fill:#000000;fill-opacity:1;stroke:none;font-family:Sans"
         x="336.88586"
         y="128.57768"
         id="text3761"
         sodipodi:linespacing="125%"><tspan
           sodipodi:role="line"
           id="tspan3763"
           x="336.88586"
           y="128.57768">omero-postgres</tspan></text>
    </g>
    <g
       id="g3797"
       transform="translate(3.0823364,0)">
      <rect
         ry="12.666509"
         rx="12.666509"
         y="72.178848"
         x="582.20911"
         height="104.95107"
         width="177.33112"
         id="rect3765"
         style="fill:#f4c5c5;fill-opacity:1;fill-rule:evenodd;stroke:#ff0000;stroke-width:2;stroke-linecap:butt;stroke-linejoin:miter;stroke-miterlimit:4;stroke-opacity:1;stroke-dasharray:none" />
      <text
         sodipodi:linespacing="125%"
         id="text3767"
         y="128.57768"
         x="601.54584"
         style="font-size:20px;font-style:normal;font-weight:normal;line-height:125%;letter-spacing:0px;word-spacing:0px;fill:#000000;fill-opacity:1;stroke:none;font-family:Sans"
         xml:space="preserve"><tspan
           y="128.57768"
           x="601.54584"
           id="tspan3769"
           sodipodi:role="line">omero-omero</tspan></text>
    </g>
    <g
       id="g3802"
       transform="translate(27.248291,0)"
       style="opacity:0.26440681">
      <rect
         style="fill:#f4c5c5;fill-opacity:1;fill-rule:evenodd;stroke:#ff0000;stroke-width:2;stroke-linecap:butt;stroke-linejoin:miter;stroke-miterlimit:4;stroke-opacity:1;stroke-dasharray:none"
         id="rect3771"
         width="177.33112"
         height="104.95107"
         x="813.6377"
         y="72.178848"
         rx="12.666509"
         ry="12.666509" />
      <text
         xml:space="preserve"
         style="font-size:20px;font-style:normal;font-weight:normal;line-height:125%;letter-spacing:0px;word-spacing:0px;fill:#000000;fill-opacity:1;stroke:none;font-family:Sans"
         x="850.11731"
         y="128.57768"
         id="text3773"
         sodipodi:linespacing="125%"><tspan
           sodipodi:role="line"
           id="tspan3775"
           x="850.11731"
           y="128.57768">omero-web</tspan></text>
    </g>
    <g
       id="g3807"
       style="opacity:0.26440681">
      <rect
         ry="12.666509"
         rx="12.666509"
         y="72.178848"
         x="1096.4805"
         height="104.95107"
         width="177.33112"
         id="rect3777"
         style="fill:#f4c5c5;fill-opacity:1;fill-rule:evenodd;stroke:#ff0000;stroke-width:2;stroke-linecap:butt;stroke-linejoin:miter;stroke-miterlimit:4;stroke-opacity:1;stroke-dasharray:none" />
      <text
         sodipodi:linespacing="125%"
         id="text3779"
         y="128.57768"
         x="1101.6454"
         style="font-size:20px;font-style:normal;font-weight:normal;line-height:125%;letter-spacing:0px;word-spacing:0px;fill:#000000;fill-opacity:1;stroke:none;font-family:Sans"
         xml:space="preserve"><tspan
           y="128.57768"
           x="1101.6454"
           id="tspan3781"
           sodipodi:role="line">omero-processor</tspan></text>
    </g>
    <text
       xml:space="preserve"
       style="font-size:28px;font-style:normal;font-weight:normal;line-height:125%;letter-spacing:0px;word-spacing:0px;fill:#ff0000;fill-opacity:1;stroke:none;font-family:Sans"
       x="-148.57143"
       y="138.07648"
       id="text3783"
       sodipodi:linespacing="125%"><tspan
         sodipodi:role="line"
         id="tspan3785"
         x="-148.57143"
         y="138.07648">Images</tspan></text>
    <g
       id="g3965"
       transform="translate(-38.385797,-170.30202)">
      <rect
         style="fill:#c5ddf4;fill-opacity:1;fill-rule:evenodd;stroke:#0c00ff;stroke-width:2;stroke-linecap:butt;stroke-linejoin:miter;stroke-miterlimit:4;stroke-opacity:1;stroke-dasharray:none"
         id="rect3814"
         width="133.78394"
         height="79.178246"
         x="117.89513"
         y="425.48666"
         rx="9.555995"
         ry="9.555995" />
      <text
         xml:space="preserve"
         style="font-size:20px;font-style:normal;font-weight:normal;line-height:125%;letter-spacing:0px;word-spacing:0px;fill:#000000;fill-opacity:1;stroke:none;font-family:Sans"
         x="162.1295"
         y="468.99908"
         id="text3816"
         sodipodi:linespacing="125%"><tspan
           sodipodi:role="line"
           id="tspan3818"
           x="162.1295"
           y="468.99908">data</tspan></text>
    </g>
    <text
       sodipodi:linespacing="125%"
       id="text3852"
       y="301.72122"
       x="-148.57143"
       style="font-size:28px;font-style:normal;font-weight:normal;line-height:125%;letter-spacing:0px;word-spacing:0px;fill:#0000ff;fill-opacity:1;stroke:none;font-family:Sans"
       xml:space="preserve"><tspan
         y="301.72122"
         x="-148.57143"
         id="tspan3854"
         sodipodi:role="line">Instances</tspan></text>
    <g
       id="g3960"
       transform="translate(-38.385797,-157.17003)">
      <path
         inkscape:connector-curvature="0"
         id="rect3859"
         d="m 402.93519,412.17204 114.98686,0 c 5.30855,0 9.58224,4.28163 9.58224,9.60008 l 0,60.34336 c 0,5.31844 -4.27369,9.60007 -9.58224,9.60007 l -114.98686,0 c -5.30856,0 -9.58224,-4.28163 -9.58224,-9.60007 l 0,-60.34336 c 0,-5.31845 4.27368,-9.60008 9.58224,-9.60008 z"
         style="color:#000000;fill:#c5ddf4;fill-opacity:1;fill-rule:evenodd;stroke:#0c00ff;stroke-width:2;stroke-linecap:butt;stroke-linejoin:miter;stroke-miterlimit:4;stroke-opacity:1;stroke-dasharray:none;stroke-dashoffset:0;marker:none;visibility:visible;display:inline;overflow:visible;enable-background:accumulate" />
      <text
         sodipodi:linespacing="125%"
         id="text3861"
         y="455.8671"
         x="449.70966"
         style="font-size:20px;font-style:normal;font-weight:normal;line-height:125%;letter-spacing:0px;word-spacing:0px;fill:#000000;fill-opacity:1;stroke:none;font-family:Sans"
         xml:space="preserve"><tspan
           y="455.8671"
           x="449.70966"
           id="tspan3863"
           sodipodi:role="line">pg</tspan></text>
    </g>
    <g
       id="g3972"
       transform="translate(-103.03556,-157.17003)">
      <rect
         style="fill:#c5ddf4;fill-opacity:1;fill-rule:evenodd;stroke:#0c00ff;stroke-width:2;stroke-linecap:butt;stroke-linejoin:miter;stroke-miterlimit:4;stroke-opacity:1;stroke-dasharray:none"
         id="rect3865"
         width="133.78394"
         height="79.178238"
         x="705.54254"
         y="412.35468"
         rx="9.555995"
         ry="9.555994" />
      <text
         xml:space="preserve"
         style="font-size:20px;font-style:normal;font-weight:normal;line-height:125%;letter-spacing:0px;word-spacing:0px;fill:#000000;fill-opacity:1;stroke:none;font-family:Sans"
         x="745.28693"
         y="455.8671"
         id="text3867"
         sodipodi:linespacing="125%"><tspan
           sodipodi:role="line"
           id="tspan3869"
           x="745.28693"
           y="455.8671">omero</tspan></text>
    </g>
    <text
       xml:space="preserve"
       style="font-size:20px;font-style:normal;font-weight:normal;line-height:125%;letter-spacing:0px;word-spacing:0px;fill:#000000;fill-opacity:1;stroke:none;font-family:Sans"
       x="141.92644"
       y="487.29565"
       id="text3871"
       sodipodi:linespacing="125%"><tspan
         sodipodi:role="line"
         id="tspan3873"
         x="141.92644"
         y="487.29565" /></text>
    <text
       xml:space="preserve"
       style="font-size:16px;font-style:normal;font-weight:normal;line-height:125%;letter-spacing:0px;word-spacing:0px;fill:#000000;fill-opacity:1;stroke:none;font-family:Sans"
       x="221.82324"
       y="315.44778"
       id="text3904"
       sodipodi:linespacing="125%"><tspan
         sodipodi:role="line"
         id="tspan3906"
         x="221.82324"
         y="315.44778">--volumes-from</tspan></text>
    <path
       style="fill:none;stroke:#000000;stroke-width:2;stroke-linecap:butt;stroke-linejoin:miter;stroke-miterlimit:4;stroke-opacity:1;stroke-dasharray:none"
       d="m 213.29326,294.77377 141.67389,0"
       id="path3970"
       inkscape:connector-type="polyline"
       inkscape:connector-curvature="0"
       inkscape:connection-start="#g3965"
       inkscape:connection-start-point="d4"
       inkscape:connection-end="#g3960"
       inkscape:connection-end-point="d4" />
    <path
       style="fill:none;stroke:#000000;stroke-width:2;stroke-linecap:butt;stroke-linejoin:miter;stroke-miterlimit:4;stroke-opacity:1;stroke-dasharray:none"
       d="m 489.11849,294.77376 113.38849,0"
       id="path3977"
       inkscape:connector-type="polyline"
       inkscape:connector-curvature="0"
       inkscape:connection-start="#g3960"
       inkscape:connection-start-point="d4"
       inkscape:connection-end="#g3972"
       inkscape:connection-end-point="d4" />
    <text
       sodipodi:linespacing="125%"
       id="text3979"
       y="315.44778"
       x="521.83856"
       style="font-size:16px;font-style:normal;font-weight:normal;line-height:125%;letter-spacing:0px;word-spacing:0px;fill:#000000;fill-opacity:1;stroke:none;font-family:Sans"
       xml:space="preserve"><tspan
         y="315.44778"
         x="521.83856"
         id="tspan3981"
         sodipodi:role="line">--link</tspan></text>
    <text
       sodipodi:linespacing="125%"
       id="text3991"
       y="412.42242"
       x="360.21414"
       style="font-size:16px;font-style:normal;font-weight:normal;line-height:125%;letter-spacing:0px;word-spacing:0px;fill:#000000;fill-opacity:1;stroke:none;font-family:Sans"
       xml:space="preserve"><tspan
         y="412.42242"
         x="360.21414"
         id="tspan3993"
         sodipodi:role="line">--volumes-from</tspan></text>
    <path
       style="fill:none;stroke:#000000;stroke-width:1px;stroke-linecap:butt;stroke-linejoin:miter;stroke-opacity:1"
       d="m 305.06607,285.53148 c 2.51431,3.14288 4.13116,4.86495 6.06091,8.08122 0.38738,0.64562 0.53981,1.43237 1.01016,2.0203 1.78484,2.23105 4.23181,3.866 6.06091,6.06092 1.55444,1.86532 2.52379,4.16488 4.04061,6.06091 0.59495,0.74369 1.44888,1.2584 2.02031,2.02031 0.9035,1.20467 1.18501,2.78767 2.0203,4.04061 0.26415,0.39621 0.67344,0.67343 1.01015,1.01015 1.01016,1.01015 2.02031,2.0203 3.03046,3.03046 0.67344,0.67343 1.49202,1.22787 2.02031,2.0203 0.41764,0.62647 0.47775,1.48791 1.01015,2.02031 1.71693,1.71693 4.19559,2.48617 6.06092,4.04061 1.09745,0.91455 1.9458,2.10075 3.03045,3.03045 1.27828,1.09567 2.78228,1.91195 4.04061,3.03046 1.77955,1.58182 3.20801,3.54306 5.05077,5.05077 1.87925,1.53756 4.18166,2.50304 6.06091,4.04061 1.84276,1.5077 3.28102,3.45798 5.05076,5.05076 1.60258,1.44232 3.43932,2.60821 5.05077,4.04061 1.42363,1.26545 2.61697,2.77515 4.04061,4.04061 1.61144,1.4324 3.36717,2.69374 5.05076,4.04061 2.0203,1.68359 4.10616,3.29149 6.06091,5.05076 2.8316,2.54844 5.38748,5.38748 8.08123,8.08122 1.34687,1.34687 2.45575,2.98404 4.04061,4.04061 1.50873,1.00583 3.46567,1.1397 5.05076,2.02031 1.47172,0.81762 2.61293,2.13815 4.04061,3.03045 1.27695,0.7981 2.69374,1.34687 4.04061,2.02031 1.34687,0.67343 2.63064,1.49157 4.04061,2.0203 1.29992,0.48748 2.74068,0.52268 4.04061,1.01016 1.40997,0.52874 2.63064,1.49156 4.04061,2.0203 1.29993,0.48747 2.83521,0.32135 4.04061,1.01015 1.24035,0.70877 1.79011,2.32169 3.03046,3.03046 1.2054,0.6888 2.7057,0.62875 4.04061,1.01016 2.04765,0.58504 4.04061,1.34687 6.06091,2.0203 4.04061,1.34687 8.08122,2.69374 12.12183,4.04061 1.01016,0.33672 2.04182,0.6147 3.03046,1.01015 0.69907,0.27963 1.28986,0.82754 2.02031,1.01016 0.65332,0.16333 1.36697,-0.16334 2.0203,0 2.44323,0.6108 2.33656,1.89442 4.04061,3.03045 0.62647,0.41765 1.34687,0.67344 2.02031,1.01016 0.67343,0.33671 1.29635,0.8033 2.0203,1.01015 1.65087,0.47167 3.3999,0.53847 5.05076,1.01015 0.72396,0.20684 1.32124,0.73052 2.02031,1.01015 0.98864,0.39546 2.0203,0.67344 3.03046,1.01016 4.0265,1.34216 8.04134,2.87475 12.12183,4.04061 1.3349,0.3814 2.7057,0.62875 4.04061,1.01015 1.02382,0.29252 2.00663,0.71763 3.03045,1.01015 12.01667,3.43333 -2.43809,-0.57471 7.07107,1.01015 1.05031,0.17505 1.98015,0.83511 3.03046,1.01016 0.99641,0.16606 2.03405,-0.16607 3.03046,0 1.0503,0.17505 1.98015,0.8351 3.03046,1.01015 0.9964,0.16607 2.0203,0 3.03045,0 4.04061,0 8.08122,0 12.12183,0 1.34687,0 2.70728,-0.19048 4.04061,0 1.0541,0.15058 1.98015,0.8351 3.03046,1.01015 1.99282,0.33214 4.0681,-0.33213 6.06092,0 1.0503,0.17505 1.98015,0.8351 3.03045,1.01015 0.99641,0.16607 2.02031,0 3.03046,0 1.01015,0 2.02031,0 3.03046,0 5.7242,0 11.4484,0 17.17259,0 3.36718,0 6.73435,0 10.10153,0 1.68359,0 3.37553,0.16753 5.05076,0 6.56032,-0.65603 3.74021,-1.12206 10.10153,-3.03045 1.64452,-0.49336 3.39433,-0.5584 5.05076,-1.01016 2.05455,-0.56033 4.00636,-1.45997 6.06091,-2.0203 1.65644,-0.45176 3.40625,-0.5168 5.05077,-1.01015 7.75966,-2.3279 2.35037,-2.23398 11.11168,-3.03046 1.67667,-0.15243 3.39433,0.30117 5.05076,0 2.09524,-0.38095 3.96568,-1.63935 6.06091,-2.02031 3.31287,-0.60234 6.78867,0.60234 10.10153,0 2.09524,-0.38095 3.96568,-1.63935 6.06091,-2.0203 1.65644,-0.30117 3.36718,0 5.05077,0 1.68358,0 3.36717,0 5.05076,0 2.0203,0 4.04891,0.18291 6.06091,0 1.70988,-0.15545 3.34089,-0.85471 5.05077,-1.01015 2.01201,-0.18291 4.04061,0 6.06091,0 5.38748,0 10.77496,0 16.16244,0 1.68359,0 3.3841,0.23809 5.05077,0 1.49071,-0.21296 2.61203,-1.54412 4.04061,-2.02031 0.31943,-0.10648 0.70898,0.15059 1.01015,0 0.42592,-0.21296 0.61394,-0.74601 1.01015,-1.01015 1.25294,-0.8353 2.69374,-1.34687 4.04061,-2.02031 1.98972,-0.99486 3.99626,-2.20459 6.06092,-3.03045 0.13091,-0.0524 6.02765,-2.00035 6.06091,-2.02031 0.81666,-0.49 1.20365,-1.53031 2.02031,-2.0203 0.91305,-0.54784 2.04182,-0.6147 3.03045,-1.01016 1.57367,-0.62946 3.86496,-2.08181 5.05077,-3.03046 1.11552,-0.89242 2.0203,-2.0203 3.03046,-3.03045 2.69374,-2.69374 5.38748,-5.38748 8.08122,-8.08122 0.67343,-0.67344 1.34687,-1.34687 2.0203,-2.02031 0.67344,-0.67343 1.2584,-1.44887 2.02031,-2.0203 0.60233,-0.45176 1.41796,-0.5584 2.0203,-1.01016 0.76191,-0.57142 1.34687,-1.34687 2.02031,-2.0203 0.67343,-0.67344 1.44887,-1.2584 2.0203,-2.02031 0.45175,-0.60233 0.47776,-1.4879 1.01015,-2.0203 0.5324,-0.5324 1.39384,-0.59251 2.02031,-1.01015 1.38967,-0.92645 1.03892,-1.55839 2.0203,-3.03046 0.77704,-1.16556 2.25342,-1.8649 3.03046,-3.03046 3.6621,-7.32419 -1.06479,1.59719 2.02031,-3.03046 0.83529,-1.25294 1.34687,-2.69374 2.0203,-4.04061 1.01015,-2.0203 2.02031,-4.04061 3.03046,-6.06091 0.33672,-0.67344 0.59251,-1.39384 1.01015,-2.02031 0.26414,-0.39621 0.74601,-0.61394 1.01015,-1.01015 0.41765,-0.62647 0.59251,-1.39383 1.01016,-2.0203 3.0851,-4.62765 -1.64179,4.29373 2.0203,-3.03046 0.33672,-0.67344 0.73053,-1.32124 1.01015,-2.02031 0.82137,-2.05342 0.83582,-3.27402 2.02031,-5.05076 0.26414,-0.39621 0.74601,-0.61394 1.01015,-1.01015 0.41765,-0.62647 0.59251,-1.39384 1.01015,-2.02031 0.61304,-0.91955 2.58279,-2.13512 3.03046,-3.03046 0.15059,-0.30116 -0.15058,-0.70898 0,-1.01015 0.42592,-0.85183 1.71914,-1.1168 2.02031,-2.0203 1.45786,-4.37358 -1.93111,0.37127 1.01015,-4.04061 0.52829,-0.79243 1.49202,-1.22788 2.02031,-2.02031 0.41764,-0.62647 0.5925,-1.39383 1.01015,-2.0203 3.0851,-4.62765 -1.64179,4.29373 2.0203,-3.03046 3.6621,-7.32419 -1.06479,1.59719 2.02031,-3.03046 0.41764,-0.62647 0.5925,-1.39383 1.01015,-2.0203 0.77704,-1.16556 2.25342,-1.8649 3.03046,-3.03046 1.91366,0.11503 0.67343,-2.35702 1.01015,-3.03046 0.21296,-0.42592 0.79719,-0.58423 1.01015,-1.01015 0.15059,-0.30117 -0.15058,-0.70898 0,-1.01015 0.42592,-0.85184 1.59439,-1.16847 2.02031,-2.02031 0.15058,-0.30117 -0.15059,-0.70898 0,-1.01015 0.21296,-0.42592 0.79719,-0.58424 1.01015,-1.01015 0.15059,-0.30117 -0.15058,-0.70899 0,-1.01016 0.21296,-0.42591 0.79719,-0.58423 1.01015,-1.01015 0.15059,-0.30117 -0.15058,-0.70898 0,-1.01015 0.21296,-0.42592 0.7972,-0.58424 1.01016,-1.01015 0.30117,-0.60234 -0.30117,-1.41797 0,-2.02031 0.21295,-0.42592 0.79719,-0.58423 1.01015,-1.01015 0.30117,-0.60234 -0.30117,-1.41797 0,-2.02031 0.13149,-0.26299 1.79981,-1.23064 1.01015,-2.0203 -0.23809,-0.2381 -0.67343,0 -1.01015,0 -0.33672,0 -0.67344,0 -1.01015,0 -0.45493,0 -2.72304,-0.15371 -3.03046,0 -0.42592,0.21296 -0.58424,0.79719 -1.01015,1.01015 -0.30117,0.15058 -0.70899,-0.15058 -1.01016,0 -0.99402,0.49701 -3.04659,3.5436 -4.04061,4.04061 -0.60234,0.30117 -1.41796,-0.30117 -2.0203,0 -0.42592,0.21296 -0.58424,0.79719 -1.01015,1.01015 -0.30117,0.15059 -0.77206,-0.23809 -1.01016,0 -0.23809,0.2381 0.2381,0.77206 0,1.01016 -0.23809,0.23809 -0.70898,-0.15059 -1.01015,0 -0.42592,0.21295 -0.58423,0.79719 -1.01015,1.01015 -0.30117,0.15058 -0.77206,-0.2381 -1.01015,0 -0.2381,0.23809 0.23809,0.77206 0,1.01015 -0.2381,0.2381 -1.01016,0.33672 -1.01016,0 0,-0.33672 0.67344,0 1.01016,0 1.01015,0 2.0203,0 3.03045,0 2.6569,0 -0.3986,-0.81085 2.02031,-2.0203 0.30117,-0.15059 0.67343,0 1.01015,0 0.67344,-0.33672 1.34687,-0.67344 2.02031,-1.01016 0.67343,-0.33671 1.39383,-0.5925 2.0203,-1.01015 0.39621,-0.26414 0.58424,-0.79719 1.01015,-1.01015 0.30117,-0.15059 0.70899,0.15058 1.01016,0 0.99401,-0.49701 3.04659,-3.5436 4.04061,-4.04061 0.30117,-0.15059 0.77205,0.23809 1.01015,0 0.23809,-0.2381 -0.15059,-0.70899 0,-1.01015 0.21296,-0.42592 0.67343,-1.34687 1.01015,-1.01016 0.33672,0.33672 -1.48634,1.01016 -1.01015,1.01016 0.75292,0 1.26738,-1.01016 2.0203,-1.01016 0.33672,0 -0.15058,0.70899 0,1.01016 0.21296,0.42591 0.74601,0.61393 1.01016,1.01015 0.41764,0.62647 0.5925,1.39383 1.01015,2.0203 0.52828,0.79243 1.59439,1.16847 2.0203,2.02031 1.48635,2.97268 -2.3401,-1.32995 1.01016,2.0203 0.53181,0.53181 2.7607,2.49095 3.03045,3.03046 0.30117,0.60234 -0.47619,1.54412 0,2.02031 0.2381,0.23809 0.70899,-0.15059 1.01016,0 1.40461,0.7023 2.0203,2.61445 2.0203,4.04061"
       id="path3995"
       inkscape:connector-curvature="0"
       transform="translate(-155.82338,61.1875)" />
    <path
       style="fill:none;stroke:#000000;stroke-width:1px;stroke-linecap:butt;stroke-linejoin:miter;stroke-opacity:1"
       d="m 290.92393,127.94768 c 0,3.03046 0,6.06091 0,9.09137 0,0.33672 0,0.67344 0,1.01015 0,0.33672 -0.15058,0.70899 0,1.01016 0.21296,0.42591 0.85957,0.55839 1.01016,1.01015 0.31943,0.95831 -0.31944,2.07214 0,3.03046 0.23809,0.71428 0.77205,1.30602 1.01015,2.0203 0.10648,0.31944 0,0.67344 0,1.01015 0,0.67344 0,1.34687 0,2.02031 0,2.35702 0,4.71404 0,7.07107 0,2.35702 0,4.71404 0,7.07106 0,0.67344 0,1.34687 0,2.02031 0,0.33672 -0.15059,0.70898 0,1.01015 0.21296,0.42592 0.79719,0.58424 1.01015,1.01015 0.13059,0.26118 0,5.34492 0,6.06092 0,0.716 0.13059,5.79974 0,6.06092 -0.21296,0.42591 -0.79719,0.58423 -1.01015,1.01015 -0.30117,0.60234 0.30117,1.41796 0,2.0203 -1.24825,2.4965 -1.01015,-0.34868 -1.01015,2.02031"
       id="path3997"
       inkscape:connector-curvature="0"
       transform="translate(-155.82338,61.1875)" />
    <path
       style="fill:none;stroke:#000000;stroke-width:1px;stroke-linecap:butt;stroke-linejoin:miter;stroke-opacity:1"
       d="m 572.75649,124.91722 c 2.17089,4.34178 2.02031,2.53476 2.02031,5.05076 0,0.33672 -0.10648,0.69072 0,1.01016 0.23809,0.71428 0.82754,1.28986 1.01015,2.0203 0.16333,0.65333 0,1.34687 0,2.02031 0,0.67343 0,1.34687 0,2.0203 0,2.69374 0,5.38748 0,8.08122 0,1.01015 0,2.02031 0,3.03046 0,1.01015 0.245,2.05046 0,3.03046 -0.11549,0.46197 -0.79719,0.58423 -1.01015,1.01015 -0.13281,0.26561 0,3.51238 0,4.04061 0,3.36717 0,6.73435 0,10.10152 0,2.35703 0,4.71405 0,7.07107 0,0.67344 0,1.34687 0,2.02031 0,0.67343 -0.21296,1.38143 0,2.0203 0.15058,0.45176 0.79719,0.58424 1.01015,1.01016 0.15059,0.30116 -0.15058,0.70898 0,1.01015 0.21296,0.42592 0.79719,0.58423 1.01015,1.01015 0.30117,0.60234 -0.47619,1.54412 0,2.02031 0.2381,0.23809 0.77206,-0.2381 1.01016,0 0.23809,0.23809 0,1.34687 0,1.01015 0,-0.67344 0,-1.34687 0,-2.02031"
       id="path3999"
       inkscape:connector-curvature="0"
       transform="translate(-155.82338,61.1875)" />
    <path
       style="fill:none;stroke:#000000;stroke-width:1px;stroke-linecap:butt;stroke-linejoin:miter;stroke-opacity:1"
       d="m 814.18295,123.90707 c 2.10554,1.3951 0.55804,4.25246 1.01015,6.06091 0.36523,1.46089 1.46105,2.64247 2.02031,4.04061 2.79038,6.97596 -0.37568,-0.86822 1.01015,6.06092 0.14766,0.7383 0.86249,1.282 1.01015,2.0203 0.26521,1.32601 0,4.45488 0,6.06092 0,0.67343 -0.16333,1.36698 0,2.0203 0.18261,0.73045 0.77206,1.30602 1.01016,2.02031 0.10648,0.31944 -0.15059,0.70898 0,1.01015 0.21296,0.42592 0.79719,0.58424 1.01015,1.01015 0.15371,0.30743 0,2.57553 0,3.03046 0,3.03046 0,6.06092 0,9.09137 0,0.52823 -0.13281,3.775 0,4.04062 0.21296,0.42591 0.79719,0.58423 1.01015,1.01015 0.32364,0.64728 -0.31367,5.43358 0,6.06091 0.21296,0.42592 0.7972,0.58424 1.01015,1.01016 0.15059,0.30116 0,0.67343 0,1.01015 0,0.33672 0,0.67343 0,1.01015 0,1.68359 0,3.36718 0,5.05076"
       id="path4001"
       inkscape:connector-curvature="0"
       transform="translate(-155.82338,61.1875)" />
  </g>
</svg>
